<?xml version="1.0" standalone="no"?>
<!DOCTYPE svg PUBLIC "-//W3C//DTD SVG 20010904//EN"
 "http://www.w3.org/TR/2001/REC-SVG-20010904/DTD/svg10.dtd">
<svg version="1.0" xmlns="http://www.w3.org/2000/svg"
 width="816.000000pt" height="624.000000pt" viewBox="0 0 816.000000 624.000000"
 preserveAspectRatio="xMidYMid meet">
<metadata>
Created by potrace 1.16, written by Peter Selinger 2001-2019
</metadata>
<g transform="translate(0.000000,624.000000) scale(0.100000,-0.100000)"
fill="#34d399" stroke="none">
<path d="M3440 6225 c0 -9 -11 -27 -25 -40 -24 -25 -24 -25 -250 -25 -226 0
-285 -8 -285 -40 0 -28 -61 -40 -200 -40 -139 0 -200 -12 -200 -40 0 -25 -61
-40 -160 -40 -99 0 -160 -15 -160 -40 0 -20 -61 -40 -120 -40 -59 0 -120 -20
-120 -40 0 -20 -61 -40 -120 -40 -66 0 -93 -10 -127 -46 -12 -13 -33 -26 -47
-29 -14 -3 -37 -7 -51 -10 -13 -3 -38 -19 -55 -35 -17 -16 -43 -32 -58 -35
-15 -4 -37 -8 -49 -11 -13 -2 -36 -18 -53 -34 -17 -16 -42 -32 -55 -35 -14 -3
-36 -7 -49 -10 -14 -3 -57 -37 -96 -75 -39 -38 -82 -72 -96 -75 -13 -3 -35 -7
-48 -10 -14 -3 -57 -37 -96 -75 -39 -38 -82 -72 -96 -75 -13 -3 -35 -7 -49
-10 -34 -7 -443 -416 -450 -450 -3 -14 -7 -35 -10 -47 -2 -13 -36 -56 -75 -97
-39 -41 -72 -84 -75 -95 -2 -12 -6 -33 -10 -48 -3 -15 -20 -44 -38 -64 -31
-37 -32 -39 -37 -157 -5 -124 -19 -157 -66 -157 -12 0 -14 -42 -14 -240 0
-198 2 -240 14 -240 40 0 60 -36 66 -118 6 -72 10 -84 38 -116 17 -20 34 -48
37 -61 3 -14 7 -36 10 -50 3 -13 19 -38 35 -55 16 -17 32 -42 35 -55 3 -14 7
-36 10 -50 3 -13 54 -74 115 -135 67 -68 112 -121 116 -138 3 -15 7 -37 10
-49 6 -30 99 -122 129 -128 14 -3 36 -7 50 -10 13 -3 74 -54 135 -115 61 -61
122 -112 135 -115 14 -3 36 -7 49 -10 14 -3 57 -37 96 -75 39 -38 82 -72 96
-75 13 -3 35 -7 49 -10 13 -3 38 -19 55 -35 17 -16 42 -32 55 -35 14 -3 36 -7
50 -10 13 -3 38 -19 55 -35 17 -16 42 -32 55 -35 14 -3 37 -7 51 -10 14 -3 35
-16 47 -29 34 -36 61 -46 127 -46 59 0 120 -20 120 -40 0 -20 61 -40 120 -40
59 0 120 -20 120 -40 0 -20 61 -40 120 -40 59 0 120 -20 120 -40 0 -25 61 -40
160 -40 99 0 160 -15 160 -40 0 -28 61 -40 200 -40 139 0 200 -12 200 -40 0
-39 18 -40 1040 -40 1022 0 1040 1 1040 40 0 28 61 40 200 40 139 0 200 12
200 40 0 25 61 40 160 40 99 0 160 15 160 40 0 20 61 40 120 40 59 0 120 20
120 40 0 20 61 40 120 40 59 0 120 20 120 40 0 20 61 40 120 40 66 0 93 10
127 46 12 13 34 26 50 29 15 4 38 8 50 11 13 2 36 18 53 34 17 16 42 32 55 35
14 3 36 7 50 10 13 3 38 19 55 35 17 16 42 32 55 35 14 3 36 7 49 10 14 3 57
37 96 75 39 38 81 72 93 74 12 3 34 7 49 10 17 4 70 49 138 116 61 61 122 112
135 115 14 3 36 7 50 10 31 7 203 177 209 208 3 12 7 34 11 49 3 15 34 56 69
92 72 72 86 93 86 129 0 14 16 44 35 67 19 23 37 52 39 64 3 11 7 32 10 46 3
14 17 39 32 55 36 41 44 66 44 136 0 63 27 109 65 109 13 0 15 34 15 280 0
232 -2 280 -14 280 -40 0 -60 36 -66 118 -6 72 -10 84 -38 116 -17 20 -34 46
-36 59 -3 12 -7 34 -10 48 -3 14 -37 59 -76 100 -39 41 -73 84 -75 97 -3 12
-7 33 -10 47 -7 34 -496 523 -530 530 -14 3 -36 7 -49 10 -14 3 -57 37 -96 75
-39 38 -82 72 -96 75 -13 3 -35 7 -49 10 -13 3 -38 19 -55 35 -17 16 -42 32
-55 35 -14 3 -36 7 -50 10 -13 3 -38 19 -55 35 -17 16 -42 32 -55 35 -14 3
-36 7 -50 10 -13 3 -38 19 -55 35 -17 16 -42 32 -55 35 -14 3 -37 7 -51 10
-14 3 -35 16 -47 29 -34 36 -61 46 -127 46 -59 0 -120 20 -120 40 0 20 -61 40
-120 40 -59 0 -120 20 -120 40 0 25 -61 40 -160 40 -99 0 -160 15 -160 40 0
28 -61 40 -200 40 -139 0 -200 12 -200 40 0 32 -59 40 -285 40 -226 0 -226 0
-250 25 -14 13 -25 31 -25 40 0 13 -69 15 -640 15 -571 0 -640 -2 -640 -15z
m-505 -410 c22 -21 25 -33 25 -95 0 -128 39 -120 -559 -120 -530 0 -541 1
-541 40 0 18 33 40 60 40 18 0 42 11 62 29 54 46 71 51 178 51 99 0 160 15
160 40 0 33 54 39 323 40 268 0 268 0 292 -25z m2069 9 c9 -8 16 -19 16 -24 0
-14 -43 -40 -66 -40 -12 0 -41 -16 -64 -35 -23 -19 -53 -37 -66 -40 -13 -3
-35 -7 -49 -10 -13 -3 -38 -19 -55 -35 -17 -16 -43 -32 -58 -35 -15 -4 -37 -8
-49 -11 -13 -2 -36 -18 -53 -34 -17 -16 -42 -32 -55 -35 -14 -3 -36 -7 -49
-10 -14 -3 -57 -37 -96 -75 -39 -38 -82 -72 -96 -75 -13 -3 -35 -7 -49 -10
-13 -3 -38 -19 -55 -35 -17 -16 -42 -32 -55 -35 -14 -3 -36 -7 -50 -10 -13 -3
-38 -19 -55 -35 -17 -16 -42 -32 -55 -35 -14 -3 -36 -7 -50 -10 -13 -3 -38
-19 -55 -35 -17 -16 -40 -32 -53 -34 -12 -3 -34 -7 -49 -11 -15 -3 -41 -19
-58 -35 -17 -16 -42 -32 -55 -35 -14 -3 -36 -7 -49 -10 -14 -3 -57 -37 -96
-75 -39 -38 -82 -72 -96 -75 -13 -3 -35 -7 -49 -10 -13 -3 -38 -19 -55 -35
-17 -16 -43 -32 -58 -35 -15 -4 -37 -8 -50 -11 -25 -5 -112 -91 -112 -111 0
-40 22 -43 296 -43 267 0 324 7 324 40 0 32 59 40 280 40 240 0 240 0 300 -60
53 -53 60 -69 60 -140 0 -66 10 -93 46 -127 13 -12 26 -33 29 -47 3 -14 7 -38
10 -52 3 -14 16 -35 29 -47 36 -34 46 -61 46 -127 0 -59 20 -120 40 -120 14 0
40 -55 40 -85 0 -65 88 -98 135 -50 23 23 25 31 25 130 0 104 15 165 40 165
28 0 40 61 40 200 0 139 12 200 40 200 25 0 40 61 40 160 0 99 15 160 40 160
25 0 40 61 40 160 0 99 15 160 40 160 25 0 40 61 40 160 0 99 15 160 40 160
21 0 40 61 40 125 0 120 85 156 167 69 12 -13 34 -26 50 -29 15 -4 38 -8 50
-11 23 -4 342 -315 362 -352 6 -12 11 -48 11 -82 0 -59 20 -120 40 -120 33 0
40 -57 40 -320 0 -273 -2 -285 -46 -327 -13 -12 -26 -33 -29 -47 -3 -14 -7
-37 -10 -51 -3 -13 -19 -38 -35 -55 -16 -17 -32 -42 -35 -55 -3 -14 -7 -36
-10 -50 -7 -33 -257 -283 -290 -290 -14 -3 -37 -7 -51 -10 -14 -3 -35 -16 -47
-29 -34 -36 -61 -46 -127 -46 -59 0 -120 -20 -120 -40 0 -36 -48 -40 -525 -40
-546 0 -515 7 -515 -115 0 -64 -19 -125 -40 -125 -28 0 -40 -61 -40 -200 0
-139 -12 -200 -40 -200 -28 0 -40 -61 -40 -200 0 -139 -12 -200 -40 -200 -28
0 -40 -61 -40 -200 0 -139 -12 -200 -40 -200 -21 0 -40 -61 -40 -125 0 -124
53 -115 -675 -115 -725 0 -704 -3 -635 92 30 41 30 41 30 185 0 142 12 203 40
203 25 0 40 61 40 160 0 99 15 160 40 160 28 0 40 61 40 204 0 145 0 145 29
178 46 54 51 71 51 178 0 99 15 160 40 160 28 0 40 61 40 204 0 145 0 145 29
178 46 54 51 71 51 178 0 99 15 160 40 160 28 0 40 61 40 200 0 149 3 162 51
218 28 31 29 37 29 138 0 103 15 164 40 164 28 0 40 61 40 200 0 139 12 200
40 200 28 0 40 61 40 205 0 220 -125 195 959 195 814 0 911 -2 925 -16z m886
1 c17 -9 30 -20 30 -25 0 -20 61 -40 120 -40 67 0 88 -8 138 -51 20 -18 44
-29 62 -29 27 0 60 -22 60 -40 0 -36 -26 -40 -296 -40 -305 0 -280 -7 -386
104 -119 123 -109 135 100 136 109 0 150 -4 172 -15z m-3035 -570 c16 -15 25
-36 25 -55 0 -19 -9 -40 -25 -55 -24 -25 -24 -25 -974 -25 -998 0 -981 -1
-981 40 0 18 33 40 60 40 18 0 42 11 62 28 18 16 42 34 53 40 14 8 263 11 888
12 868 0 868 0 892 -25z m4311 12 c31 -18 94 -92 94 -110 0 -35 -32 -37 -622
-37 -640 1 -599 -3 -661 66 -41 46 -46 68 -19 83 26 16 1181 14 1208 -2z
m-4471 -572 c22 -21 25 -33 25 -95 0 -133 129 -120 -1195 -120 -771 0 -1153 3
-1166 10 -26 15 -24 33 11 82 17 23 30 54 30 70 0 17 10 39 25 53 38 39 2232
39 2270 0z m5040 0 c15 -14 25 -36 25 -53 0 -16 13 -47 30 -70 35 -49 37 -67
11 -82 -13 -7 -308 -10 -886 -10 -1005 0 -915 -12 -915 120 0 132 -85 120 880
120 831 0 831 0 855 -25z m-5120 -560 c39 -38 33 -75 -22 -137 -25 -29 -56
-58 -67 -65 -16 -9 -287 -12 -1169 -13 -1148 0 -1148 0 -1172 25 -50 49 -5
148 91 204 13 7 362 10 1167 11 1148 0 1148 0 1172 -25z m5360 0 c22 -21 25
-33 25 -95 0 -133 124 -120 -1155 -120 -1130 0 -1145 0 -1145 38 0 18 139 169
175 190 15 8 292 11 1048 12 1028 0 1028 0 1052 -25z m-5520 -640 c37 -36 37
-154 0 -190 -24 -25 -24 -25 -1010 -25 -685 0 -992 3 -1006 11 -96 51 -144
155 -94 204 38 39 2072 39 2110 0z m5426 15 c26 -15 24 -33 -11 -82 -17 -23
-30 -54 -30 -70 0 -17 -10 -39 -25 -53 -38 -39 -3672 -39 -3710 0 -50 49 -5
148 91 204 26 14 3657 16 3685 1z m-5586 -575 c37 -36 37 -154 0 -190 -24 -25
-24 -25 -690 -25 -489 0 -672 3 -688 12 -35 19 -177 171 -177 190 0 36 22 37
783 38 748 0 748 0 772 -25z m5186 15 c10 -6 19 -18 19 -28 0 -25 -84 -110
-114 -117 -14 -3 -38 -7 -52 -10 -14 -3 -35 -16 -47 -29 -12 -13 -32 -28 -44
-34 -16 -9 -430 -12 -1608 -12 -1827 0 -1635 -14 -1635 120 0 62 3 74 25 95
24 25 24 25 1730 25 1157 0 1713 -3 1726 -10z m-5266 -575 c50 -49 2 -153 -94
-204 -48 -26 -201 -4 -201 29 0 20 -61 40 -120 40 -67 0 -88 8 -138 51 -20 18
-44 29 -62 29 -27 0 -60 22 -60 40 0 37 24 40 341 40 310 0 310 0 334 -25z
m4389 9 c29 -29 4 -64 -44 -64 -18 0 -42 -11 -62 -29 -50 -43 -71 -51 -138
-51 -59 0 -120 -20 -120 -40 0 -5 -13 -16 -30 -25 -36 -19 -2296 -23 -2331 -5
-26 15 -24 33 11 82 17 23 30 54 30 70 0 17 10 39 25 53 24 25 24 25 1334 25
1177 0 1311 -2 1325 -16z"/>
<path d="M7596 6216 c-3 -13 -22 -43 -41 -66 -35 -42 -35 -42 -35 -187 0 -157
2 -165 60 -223 58 -58 66 -60 220 -60 156 0 165 2 223 64 51 54 57 72 57 176
0 111 -4 119 -84 204 -37 38 -69 80 -72 93 -10 37 -318 36 -328 -1z m208 -75
c32 -35 -11 -72 -68 -57 -52 13 -32 76 24 76 15 0 34 -8 44 -19z m-140 -267
c4 -9 4 -19 1 -22 -7 -8 -35 19 -29 29 8 14 21 11 28 -7z m220 -50 c20 -19 20
-23 -1 -46 -16 -18 -120 -26 -158 -12 -14 6 -45 53 -45 69 0 14 189 5 204 -11z"/>
<path d="M109 1341 c-24 -19 -24 -19 -27 -680 -2 -661 -2 -661 158 -661 160 0
160 0 160 455 0 456 0 456 25 480 24 25 24 25 494 25 487 0 501 -1 501 -40 0
-38 -19 -40 -422 -40 -391 0 -391 0 -455 -63 -63 -64 -63 -64 -63 -135 0 -71
0 -72 47 -124 72 -82 43 -77 471 -78 428 0 398 -5 482 80 64 65 87 80 125 80
33 0 75 42 75 75 0 32 14 60 51 103 42 48 46 476 4 517 -24 25 -24 25 -813 25
-763 0 -791 -1 -813 -19z"/>
<path d="M1954 1347 c-11 -7 -42 -36 -67 -65 -47 -53 -47 -53 -47 -601 0 -549
0 -549 35 -591 19 -23 38 -53 41 -66 6 -24 6 -24 165 -24 159 0 159 0 159 455
0 456 0 456 25 480 24 25 24 25 450 25 510 0 515 -1 420 -102 -67 -72 -110
-75 -185 -13 -42 35 -42 35 -311 35 -344 0 -319 16 -319 -200 0 -210 -12 -200
235 -200 118 0 194 -4 207 -11 35 -19 108 -99 113 -125 3 -13 7 -35 10 -49 3
-13 54 -74 115 -135 60 -61 113 -122 116 -135 6 -25 6 -25 205 -25 199 0 199
0 199 51 0 68 -2 71 -160 229 -76 76 -143 147 -149 158 -28 52 9 122 64 122
39 0 59 14 145 100 96 96 100 103 100 180 0 67 8 88 53 139 35 41 33 84 -7
132 -31 36 -32 56 -6 89 27 35 25 47 -17 94 -62 70 -6 65 -823 65 -566 0 -750
-3 -766 -12z"/>
<path d="M3794 1347 c-11 -7 -42 -36 -67 -65 -47 -53 -47 -53 -47 -667 0 -615
0 -615 160 -615 160 0 160 0 160 655 0 656 0 656 -25 680 -27 28 -140 36 -181
12z"/>
<path d="M4265 1335 c-25 -24 -25 -24 -25 -680 0 -655 0 -655 160 -655 160 0
160 0 160 455 0 456 0 456 25 480 38 39 952 39 990 0 14 -13 25 -36 25 -50 0
-32 16 -63 46 -92 13 -12 26 -33 29 -47 3 -14 7 -37 10 -51 3 -13 19 -38 35
-55 16 -17 32 -42 35 -55 3 -14 7 -36 10 -50 3 -13 19 -38 35 -55 16 -17 32
-42 35 -55 3 -14 7 -36 10 -50 3 -13 19 -38 35 -55 16 -17 32 -40 34 -53 3
-12 7 -35 11 -50 3 -16 16 -38 29 -50 35 -33 46 -61 46 -116 0 -51 0 -51 200
-51 200 0 200 0 200 54 0 47 -4 59 -35 96 -19 23 -37 53 -40 66 -3 13 -7 35
-10 49 -3 13 -19 38 -35 55 -16 17 -32 40 -34 53 -3 12 -7 34 -11 49 -3 15
-19 41 -35 58 -16 17 -32 42 -35 55 -3 14 -7 36 -10 50 -3 13 -19 38 -35 55
-16 17 -32 42 -35 55 -3 14 -7 36 -10 50 -3 13 -19 38 -35 55 -16 17 -32 42
-35 55 -3 14 -7 36 -10 50 -3 13 -19 38 -35 55 -16 17 -32 42 -35 55 -3 14 -7
36 -10 50 -5 25 -156 184 -193 204 -11 6 -48 11 -82 11 -59 0 -120 20 -120 40
0 37 -41 40 -645 40 -586 0 -586 0 -610 -25z"/>
<path d="M6988 1344 c-16 -8 -28 -19 -28 -24 0 -20 -61 -40 -120 -40 -34 0
-71 -5 -82 -11 -37 -20 -188 -179 -193 -204 -3 -14 -7 -37 -10 -51 -3 -14 -16
-35 -29 -47 -46 -44 -46 -43 -46 -516 l0 -451 759 0 c759 0 759 0 765 25 3 13
21 41 39 61 30 35 32 42 32 117 0 101 -15 117 -112 117 -70 0 -90 8 -141 51
-33 29 -33 29 -420 29 -388 0 -388 0 -430 -31 -46 -34 -76 -33 -86 4 -10 39
-6 57 19 82 24 25 24 25 455 25 530 0 480 -21 480 200 0 220 43 200 -438 200
-388 0 -388 0 -430 -31 -46 -34 -76 -33 -86 4 -10 39 -6 57 19 82 24 25 24 25
532 25 563 1 522 -4 594 74 44 49 44 49 44 126 0 77 0 77 -44 126 -25 27 -54
54 -65 61 -34 20 -942 17 -978 -3z"/>
<path d="M4985 855 c-25 -24 -25 -24 -25 -440 0 -415 0 -415 160 -415 160 0
160 0 160 415 0 505 14 465 -160 465 -104 0 -112 -1 -135 -25z"/>
</g>
</svg>
